<?xml version="1.0" standalone="no"?>
<!DOCTYPE svg PUBLIC "-//W3C//DTD SVG 20010904//EN"
 "http://www.w3.org/TR/2001/REC-SVG-20010904/DTD/svg10.dtd">
<svg version="1.0" xmlns="http://www.w3.org/2000/svg"
 width="646.000000pt" height="358.000000pt" viewBox="0 0 646.000000 358.000000"
 preserveAspectRatio="xMidYMid meet">
<metadata>
Created by potrace 1.15, written by Peter Selinger 2001-2017
</metadata>
<g transform="translate(0.000000,358.000000) scale(0.100000,-0.100000)"
fill="#000000" stroke="none">
<path d="M2548 2924 c-78 -33 -143 -44 -254 -44 -96 0 -110 -6 -99 -40 6 -19
15 -20 128 -20 95 0 128 -4 145 -16 l22 -15 0 -743 c0 -679 -1 -745 -16 -757
-12 -10 -59 -16 -153 -19 l-136 -5 0 -25 0 -25 375 0 375 0 0 25 0 25 -132 5
c-106 4 -136 8 -153 22 -20 18 -20 27 -20 838 0 650 -3 820 -12 819 -7 -1 -39
-12 -70 -25z"/>
<path d="M975 2311 c-19 -10 -64 -18 -120 -21 -89 -5 -90 -5 -93 -32 -3 -27
-2 -28 46 -28 38 0 53 -5 70 -23 l22 -23 0 -620 c0 -514 -2 -623 -14 -639 -9
-13 -31 -21 -67 -25 -49 -5 -54 -7 -54 -30 l0 -25 215 0 215 0 0 25 c0 23 -4
25 -57 30 -42 4 -64 11 -80 28 -22 21 -23 31 -26 198 -2 111 0 180 7 187 6 6
22 0 48 -20 99 -76 169 -98 292 -91 203 12 362 153 415 369 23 96 22 303 -3
402 -26 99 -53 149 -111 208 -97 97 -256 143 -390 114 -61 -13 -149 -67 -199
-121 -27 -29 -51 -50 -55 -47 -3 4 -6 51 -6 105 0 107 -2 109 -55 79z m516
-108 c67 -35 111 -91 141 -181 30 -92 38 -346 14 -453 -31 -132 -91 -221 -188
-275 -47 -26 -63 -29 -133 -28 -99 0 -154 24 -220 95 -74 79 -75 84 -75 377
l0 258 29 45 c81 124 185 187 312 188 52 1 76 -4 120 -26z"/>
<path d="M3640 2305 c-90 -20 -177 -66 -229 -119 -37 -38 -45 -52 -49 -95 -8
-84 38 -126 114 -101 40 14 48 35 39 105 -6 52 -5 55 31 94 27 30 51 46 93 58
68 20 239 23 293 4 76 -25 118 -115 118 -253 0 -43 -3 -78 -7 -78 -24 0 -268
-41 -323 -54 -270 -63 -403 -178 -417 -360 -7 -92 6 -131 62 -194 64 -71 140
-103 264 -109 143 -8 220 13 349 94 29 18 56 33 60 33 4 0 19 -20 33 -44 22
-36 36 -47 78 -61 67 -22 134 -8 180 37 36 35 45 62 45 133 1 73 -24 68 -39
-7 -15 -75 -36 -98 -91 -98 -24 0 -46 6 -51 13 -4 6 -10 192 -13 412 -5 394
-5 401 -28 448 -50 101 -148 146 -332 153 -78 2 -136 -1 -180 -11z m410 -675
l0 -230 -42 -26 c-131 -83 -261 -122 -363 -109 -68 8 -111 37 -150 99 -24 40
-30 62 -33 123 -4 63 -1 81 22 127 43 87 124 148 251 190 74 24 224 54 273 55
l42 1 0 -230z"/>
<path d="M4550 2265 c0 -19 5 -25 22 -25 33 0 103 -38 116 -63 12 -22 146
-363 274 -697 l71 -184 -13 -51 c-14 -53 -59 -165 -89 -218 -37 -67 -87 -72
-157 -16 -33 26 -45 30 -79 26 -53 -7 -77 -37 -73 -90 4 -56 39 -80 121 -85
157 -10 254 92 345 363 17 50 69 203 117 340 48 138 113 326 145 420 52 151
63 174 98 207 31 29 51 39 91 44 45 6 51 9 51 30 l0 24 -200 0 -200 0 0 -24
c0 -21 6 -24 47 -29 56 -6 98 -45 87 -80 -30 -107 -217 -664 -225 -671 -19
-20 -12 -37 -185 452 -36 100 -67 196 -71 212 -8 44 18 78 67 86 34 6 40 10
40 30 l0 24 -200 0 -200 0 0 -25z"/>
</g>
</svg>
